<?xml version="1.0" standalone="no"?><!DOCTYPE svg PUBLIC "-//W3C//DTD SVG 1.1//EN" "http://www.w3.org/Graphics/SVG/1.1/DTD/svg11.dtd"><svg class="icon" width="200px" height="200.00px" viewBox="0 0 1024 1024" version="1.1" xmlns="http://www.w3.org/2000/svg"><path d="M704 888.888889H149.333333c-31.288889 0-56.888889-25.6-56.888889-56.888889V192c0-31.288889 25.6-56.888889 56.888889-56.888889h725.333334c31.288889 0 56.888889 25.6 56.888889 56.888889v640c0 31.288889-25.6 56.888889-56.888889 56.888889H704z" fill="#5CBAEA" /><path d="M704 888.888889H149.333333c-31.288889 0-56.888889-25.6-56.888889-56.888889V192c0-31.288889 25.6-56.888889 56.888889-56.888889h725.333334c31.288889 0 56.888889 25.6 56.888889 56.888889v469.333333l-227.555556 227.555556z" fill="#FFFFFF" /><path d="M92.444444 305.777778V192c0-31.288889 25.6-56.888889 56.888889-56.888889h725.333334c31.288889 0 56.888889 25.6 56.888889 56.888889v113.777778H92.444444z" fill="#FFC44F" /><path d="M704 888.888889v-170.666667c0-31.288889 25.6-56.888889 56.888889-56.888889h170.666667l-227.555556 227.555556z" fill="#FFFFFF" /><path d="M284.444444 497.777778h455.111112c15.644444 0 28.444444-12.8 28.444444-28.444445s-12.8-28.444444-28.444444-28.444444H284.444444c-15.644444 0-28.444444 12.8-28.444444 28.444444s12.8 28.444444 28.444444 28.444445z" fill="#194F82" /><path d="M874.666667 106.666667H149.333333c-23.466667 0-44.8 9.244444-60.444444 24.888889S64 168.533333 64 192v640c0 46.933333 38.4 85.333333 85.333333 85.333333h725.333334c46.933333 0 85.333333-38.4 85.333333-85.333333V192c0-46.933333-38.4-85.333333-85.333333-85.333333z m28.444444 725.333333c0 15.644444-12.8 28.444444-28.444444 28.444444h-101.688889l130.133333-130.133333V832z m-170.666667-12.088889V718.222222c0-15.644444 12.8-28.444444 28.444445-28.444444h101.688889L732.444444 819.911111zM903.111111 632.888889h-142.222222c-46.933333 0-85.333333 38.4-85.333333 85.333333v142.222222H149.333333c-15.644444 0-28.444444-12.8-28.444444-28.444444V334.222222h782.222222v298.666667z m0-355.555556H120.888889V192c0-7.822222 2.844444-14.933333 8.533333-19.911111 4.977778-4.977778 12.088889-8.533333 19.911111-8.533333h725.333334c15.644444 0 28.444444 12.8 28.444444 28.444444v85.333333z" fill="#194F82" /><path d="M611.555556 625.777778H284.444444c-15.644444 0-28.444444-12.8-28.444444-28.444445s12.8-28.444444 28.444444-28.444444h327.111112c15.644444 0 28.444444 12.8 28.444444 28.444444s-12.8 28.444444-28.444444 28.444445zM455.111111 753.777778H284.444444c-15.644444 0-28.444444-12.8-28.444444-28.444445s12.8-28.444444 28.444444-28.444444h170.666667c15.644444 0 28.444444 12.8 28.444445 28.444444s-12.8 28.444444-28.444445 28.444445z" fill="#194F82" /></svg>