<?xml version="1.0" standalone="no"?><!DOCTYPE svg PUBLIC "-//W3C//DTD SVG 1.1//EN" "http://www.w3.org/Graphics/SVG/1.1/DTD/svg11.dtd"><svg class="icon" width="200px" height="200.00px" viewBox="0 0 1024 1024" version="1.1" xmlns="http://www.w3.org/2000/svg"><path d="M106.666667 163.555556h803.555555v426.666666H106.666667z" fill="#FFC44F" /><path d="M874.666667 746.666667H149.333333c-31.288889 0-56.888889-25.6-56.888889-56.888889V604.444444h839.111112v85.333334c0 31.288889-25.6 56.888889-56.888889 56.888889zM611.555556 750.222222L682.666667 888.888889H341.333333l71.111111-138.666667z" fill="#FFFFFF" /><path d="M504.888889 675.555556m-28.444445 0a28.444444 28.444444 0 1 0 56.888889 0 28.444444 28.444444 0 1 0-56.888889 0Z" fill="#194F82" /><path d="M903.111111 106.666667H120.888889c-31.288889 0-56.888889 25.6-56.888889 56.888889v554.666666c0 31.288889 25.6 56.888889 56.888889 56.888889h245.333333l-42.666666 85.333333H263.111111c-15.644444 0-28.444444 12.8-28.444444 28.444445s12.8 28.444444 28.444444 28.444444h497.066667c15.644444 0 28.444444-12.8 28.444444-28.444444s-12.8-28.444444-28.444444-28.444445h-60.444445l-42.666666-85.333333H903.111111c31.288889 0 56.888889-25.6 56.888889-56.888889V163.555556c0-31.288889-25.6-56.888889-56.888889-56.888889zM120.888889 163.555556h782.222222v412.444444H120.888889V163.555556z m266.666667 696.888888l42.666666-85.333333h164.266667l42.666667 85.333333H387.555556z m515.555555-142.222222H120.888889V632.888889h782.222222v85.333333z" fill="#194F82" /></svg>