<?xml version="1.0" standalone="no"?><!DOCTYPE svg PUBLIC "-//W3C//DTD SVG 1.1//EN" "http://www.w3.org/Graphics/SVG/1.1/DTD/svg11.dtd"><svg class="icon" width="200px" height="200.00px" viewBox="0 0 1024 1024" version="1.1" xmlns="http://www.w3.org/2000/svg"><path fill="#333333" d="M722.93750025 907.5078125L301.06249975 907.5078125c-72.69433594 0-131.83593775-59.14160182-131.83593776-131.83593775L169.22656275 248.32812525c0-72.69433594 59.14160182-131.83593775 131.83593776-131.83593775l306.54492162 0L854.77343725 366.53222656 854.77343725 775.67187475C854.77343725 848.36621068 795.63183619 907.5078125 722.93750025 907.5078125zM301.06249975 169.22656275C257.45117187 169.22656275 221.96093725 204.71679662 221.96093725 248.32812525l0 527.34375026c0 43.61132787 35.49023463 79.1015625 79.1015625 79.1015625l421.87499974 0c43.61132787 0 79.1015625-35.49023463 79.1015625-79.1015625L802.03906275 388.20605469 585.59082006 169.22656275 301.06249975 169.22656275z"  /><path fill="#333333" d="M824.53027344 403.73632787l-119.15332006 0c-72.69433594 0-131.83593775-59.14160182-131.83593775-131.83593775L573.54101563 152.74707006c0-10.652344 6.4335935-20.27636693 16.26855494-24.36328125 9.83496068-4.11328125 21.17285182-1.84570287 28.74023412 5.72167943l224.62207056 224.62207057c7.54101537 7.54101537 9.80859375 18.8789065 5.72167944 28.74023412C844.80664037 397.30273437 835.18261744 403.73632787 824.53027344 403.73632787zM626.24902318 216.39746094l0 55.50292994c0 43.61132787 35.49023463 79.1015625 79.1015625 79.1015625l55.50292994 0L626.24902318 216.39746094z"  /><path fill="#333333" d="M489.48242162 301.06249975l-184.57031224 0c-14.5546875 0-26.36718725-11.81249975-26.36718725-26.36718725s11.81249975-26.36718725 26.36718724-26.36718725l184.57031225 0c14.5546875 0 26.36718725 11.81249975 26.36718724 26.36718725S504.03710912 301.06249975 489.48242162 301.06249975z"  /><path fill="#333333" d="M489.48242162 417.73730443l-184.57031224 0c-14.5546875 0-26.36718725-11.81249975-26.36718725-26.36718724s11.81249975-26.36718725 26.36718724-26.36718725l184.57031225 0c14.5546875 0 26.36718725 11.81249975 26.36718724 26.36718725S504.03710912 417.73730443 489.48242162 417.73730443z"  /><path fill="#333333" d="M726.78710912 534.43847682l-421.87499974 0c-14.5546875 0-26.36718725-11.81249975-26.36718725-26.36718724s11.81249975-26.36718725 26.36718725-26.36718724l421.87499974 0c14.5546875 0 26.36718725 11.81249975 26.36718725 26.36718723S741.36816432 534.43847682 726.78710912 534.43847682z"  /><path fill="#333333" d="M726.78710912 651.08691381l-421.87499974 0c-14.5546875 0-26.36718725-11.81249975-26.36718725-26.36718725s11.81249975-26.36718725 26.36718725-26.36718724l421.87499974 0c14.5546875 0 26.36718725 11.81249975 26.36718725 26.36718724S741.36816432 651.08691381 726.78710912 651.08691381z"  /><path fill="#333333" d="M726.78710912 767.78808619l-421.87499974 0c-14.5546875 0-26.36718725-11.81249975-26.36718725-26.36718724s11.81249975-26.36718725 26.36718725-26.36718724l421.87499974 0c14.5546875 0 26.36718725 11.81249975 26.36718725 26.36718724S741.36816432 767.78808619 726.78710912 767.78808619z"  /></svg>