<?xml version="1.0" standalone="no"?><!DOCTYPE svg PUBLIC "-//W3C//DTD SVG 1.1//EN" "http://www.w3.org/Graphics/SVG/1.1/DTD/svg11.dtd"><svg class="icon" width="200px" height="200.00px" viewBox="0 0 1024 1024" version="1.1" xmlns="http://www.w3.org/2000/svg"><path d="M810.666667 931.555556H213.333333c-31.288889 0-56.888889-25.6-56.888889-56.888889V149.333333c0-31.288889 25.6-56.888889 56.888889-56.888889h597.333334c31.288889 0 56.888889 25.6 56.888889 56.888889v725.333334c0 31.288889-25.6 56.888889-56.888889 56.888889z" fill="#FFFFFF" /><path d="M169.955556 149.333333v42.666667h672.711111v-42.666667c0-31.288889-25.6-56.888889-56.888889-56.888889H226.844444c-32 0-56.888889 25.6-56.888888 56.888889z" fill="#5CBAEA" /><path d="M625.777778 533.333333v56.888889c0 7.822222-6.4 14.222222-14.222222 14.222222H412.444444c-7.822222 0-14.222222-6.4-14.222222-14.222222v-56.888889c0-23.466667 19.2-42.666667 42.666667-42.666666h142.222222c23.466667 0 42.666667 19.2 42.666667 42.666666z" fill="#FFC44F" /><path d="M568.888889 348.444444v-42.666666c0-7.822222-6.4-14.222222-14.222222-14.222222H469.333333c-7.822222 0-14.222222 6.4-14.222222 14.222222v42.666666c0 31.288889 25.6 56.888889 56.888889 56.888889s56.888889-25.6 56.888889-56.888889z" fill="#FFFFFF" /><path d="M625.777778 675.555556H398.222222c-15.644444 0-28.444444 12.8-28.444444 28.444444s12.8 28.444444 28.444444 28.444444h227.555556c15.644444 0 28.444444-12.8 28.444444-28.444444s-12.8-28.444444-28.444444-28.444444zM625.777778 789.333333H398.222222c-15.644444 0-28.444444 12.8-28.444444 28.444445s12.8 28.444444 28.444444 28.444444h227.555556c15.644444 0 28.444444-12.8 28.444444-28.444444s-12.8-28.444444-28.444444-28.444445z" fill="#194F82" /><path d="M810.666667 64H213.333333c-46.933333 0-85.333333 38.4-85.333333 85.333333v725.333334c0 46.933333 38.4 85.333333 85.333333 85.333333h597.333334c46.933333 0 85.333333-38.4 85.333333-85.333333V149.333333c0-46.933333-38.4-85.333333-85.333333-85.333333z m0 56.888889c15.644444 0 28.444444 12.8 28.444444 28.444444v14.222223H184.888889v-14.222223c0-15.644444 12.8-28.444444 28.444444-28.444444h597.333334z m0 782.222222H213.333333c-15.644444 0-28.444444-12.8-28.444444-28.444444V220.444444h654.222222v654.222223c0 15.644444-12.8 28.444444-28.444444 28.444444z" fill="#194F82" /><path d="M583.111111 462.222222H440.888889c-39.111111 0-71.111111 32-71.111111 71.111111v56.888889c0 23.466667 19.2 42.666667 42.666666 42.666667h199.111112c23.466667 0 42.666667-19.2 42.666666-42.666667v-56.888889c0-39.111111-32-71.111111-71.111111-71.111111z m14.222222 113.777778H426.666667v-42.666667c0-7.822222 6.4-14.222222 14.222222-14.222222h142.222222c7.822222 0 14.222222 6.4 14.222222 14.222222v42.666667zM512 433.777778c46.933333 0 85.333333-38.4 85.333333-85.333334v-42.666666c0-23.466667-19.2-42.666667-42.666666-42.666667H469.333333c-23.466667 0-42.666667 19.2-42.666666 42.666667v42.666666c0 46.933333 38.4 85.333333 85.333333 85.333334z m-28.444444-113.777778h56.888888v28.444444c0 15.644444-12.8 28.444444-28.444444 28.444445s-28.444444-12.8-28.444444-28.444445v-28.444444z" fill="#194F82" /></svg>