<?xml version="1.0" standalone="no"?><!DOCTYPE svg PUBLIC "-//W3C//DTD SVG 1.1//EN" "http://www.w3.org/Graphics/SVG/1.1/DTD/svg11.dtd"><svg class="icon" width="200px" height="200.00px" viewBox="0 0 1024 1024" version="1.1" xmlns="http://www.w3.org/2000/svg"><path fill="#333333" d="M897.09561318 467.62429677l-107.3678291-98.25646815-1.12485937-0.95613047 0-120.30371192c0-8.88638906-7.1991-16.14173203-16.14173203-16.14173203l-72.55343057 0c-8.88638906 0-16.14173203 7.1991-16.14173203 16.14173203l0 31.49606338-4.4994375-3.82452188-132.56467911-117.9977502c-0.56242969-0.50618672-1.18110234-0.8998875-1.74353203-1.29358828-9.73003359-7.70528672-21.14735625-11.81102344-33.01462353-11.81102343-12.37345312 0-24.18447656 4.38695156-34.25196885 12.7671539-0.11248594 0.16872891-0.28121484 0.33745781-0.44994375 0.39370078l-350.39370059 309.89876309c-9.28008984 7.98650156-11.36107969 23.22834609-4.61192343 34.19572589 6.74915625 10.91113594 19.797525 13.38582656 29.07761572 5.45556796l350.11248575-309.73003418c0.05624297 0 0.16872891-0.11248594 0.22497187-0.16872891C504.68841406 194.84589395 508.23172109 193.49606269 512 193.49606269s7.31158594 1.34983125 10.29246328 3.88076484c0.16872891 0.11248594 0.33745781 0.22497187 0.50618672 0.33745782l349.88751387 309.56130528c9.28008984 7.93025859 22.32845859 5.51181094 29.07761572-5.45556797C908.45669287 490.85264375 906.43194599 475.61079834 897.09561318 467.62429677z"  /><path fill="#333333" d="M540.00899844 300.35770508c0-0.05624297-0.11248594-0.11248594-0.16872891-0.16872891-8.21147344-6.86164219-17.88526406-10.51743516-27.8965125-10.57367812-10.01124844 0-19.62879609 3.65579297-27.84026953 10.46119218-0.05624297 0.11248594-0.16872891 0.16872891-0.28121484 0.28121485l-242.74465664 217.94150742c-5.45556797 4.66816641-8.60517422 12.03599531-8.60517422 19.797525l0.1687289 288.80764893c0 28.96512979 23.50956094 52.47469073 52.47469073 52.47469071l137.79527519 0 0-179.47131591c0-36.33295869 24.97187812-65.69178838 55.79302588-65.69178838l57.93025869 0c30.82114776 0 55.84926885 29.35883057 55.84926884 65.69178838l0 179.47131591 146.17547843 0c28.96512979 0 52.47469073-23.50956094 52.47469072-52.47469071l0.22497187-288.80764893c0-7.76152969-3.20584922-15.12935859-8.60517422-19.797525L540.00899844 300.35770508z"  /></svg>