<?xml version="1.0" standalone="no"?><!DOCTYPE svg PUBLIC "-//W3C//DTD SVG 1.1//EN" "http://www.w3.org/Graphics/SVG/1.1/DTD/svg11.dtd"><svg class="icon" width="200px" height="200.00px" viewBox="0 0 1024 1024" version="1.1" xmlns="http://www.w3.org/2000/svg"><path d="M874.666667 881.777778H149.333333c-31.288889 0-56.888889-25.6-56.888889-56.888889v-28.444445c0-7.822222 6.4-14.222222 14.222223-14.222222h810.666666c7.822222 0 14.222222 6.4 14.222223 14.222222v28.444445c0 31.288889-25.6 56.888889-56.888889 56.888889zM170.666667 284.444444h682.666666v469.333334H170.666667z" fill="#F6F6F7" /><path d="M199.111111 312.888889h625.777778v412.444444H199.111111z" fill="#5CBAEA" /><path d="M661.333333 384H376.888889c-15.644444 0-28.444444-12.8-28.444445-28.444444V156.444444c0-15.644444 12.8-28.444444 28.444445-28.444444h284.444444c15.644444 0 28.444444 12.8 28.444445 28.444444v199.111112c0 15.644444-12.8 28.444444-28.444445 28.444444z" fill="#FFC10D" /><path d="M398.222222 583.111111c-15.644444 0-28.444444-12.8-28.444444-28.444444v-56.888889c0-15.644444 12.8-28.444444 28.444444-28.444445s28.444444 12.8 28.444445 28.444445v56.888889c0 15.644444-12.8 28.444444-28.444445 28.444444zM512 554.666667c-15.644444 0-28.444444-12.8-28.444444-28.444445v-28.444444c0-15.644444 12.8-28.444444 28.444444-28.444445s28.444444 12.8 28.444444 28.444445v28.444444c0 15.644444-12.8 28.444444-28.444444 28.444445zM625.777778 640c-15.644444 0-28.444444-12.8-28.444445-28.444444V497.777778c0-15.644444 12.8-28.444444 28.444445-28.444445s28.444444 12.8 28.444444 28.444445v113.777778c0 15.644444-12.8 28.444444-28.444444 28.444444z" fill="#194F82" /><path d="M910.222222 753.777778V270.222222c0-23.466667-19.2-42.666667-42.666666-42.666666h-156.444445V156.444444c0-31.288889-25.6-56.888889-56.888889-56.888888H369.777778c-31.288889 0-56.888889 25.6-56.888889 56.888888v71.111112H156.444444c-23.466667 0-42.666667 19.2-42.666666 42.666666v483.555556c-27.733333 0-49.777778 22.044444-49.777778 49.777778v21.333333c0 46.933333 38.4 85.333333 85.333333 85.333333h725.333334c46.933333 0 85.333333-38.4 85.333333-85.333333v-21.333333c0-27.733333-22.044444-49.777778-49.777778-49.777778zM609.422222 156.444444l-56.888889 56.888889-40.533333 40.533334-39.822222-40.533334-56.888889-56.888889h194.133333zM369.777778 192l61.866666 61.866667-61.866666 61.866666V192z m284.444444 123.733333l-61.866666-61.866666L654.222222 192M410.311111 355.555556l61.155556-61.155556 19.911111 19.911111c11.377778 11.377778 29.155556 11.377778 40.533333 0l19.911111-19.911111 61.155556 61.155556M170.666667 284.444444h142.222222v71.111112c0 31.288889 25.6 56.888889 56.888889 56.888888h284.444444c31.288889 0 56.888889-25.6 56.888889-56.888888V284.444444h142.222222v469.333334H170.666667V284.444444z m732.444444 540.444445c0 15.644444-12.8 28.444444-28.444444 28.444444H149.333333c-15.644444 0-28.444444-12.8-28.444444-28.444444v-14.222222h782.222222v14.222222z" fill="#194F82" /></svg>