<?xml version="1.0" standalone="no"?><!DOCTYPE svg PUBLIC "-//W3C//DTD SVG 1.1//EN" "http://www.w3.org/Graphics/SVG/1.1/DTD/svg11.dtd"><svg class="icon" width="200px" height="200.00px" viewBox="0 0 1024 1024" version="1.1" xmlns="http://www.w3.org/2000/svg"><path d="M163.555556 120.888889h597.333333v782.222222H163.555556z" fill="#FFFFFF" /><path d="M689.777778 391.111111c0 15.644444-12.8 28.444444-28.444445 28.444445H547.555556c-15.644444 0-28.444444-12.8-28.444445-28.444445s12.8-28.444444 28.444445-28.444444h113.777777c15.644444 0 28.444444 12.8 28.444445 28.444444zM689.777778 263.111111c0 15.644444-12.8 28.444444-28.444445 28.444445H547.555556c-15.644444 0-28.444444-12.8-28.444445-28.444445s12.8-28.444444 28.444445-28.444444h113.777777c15.644444 0 28.444444 12.8 28.444445 28.444444zM689.777778 512c0 15.644444-12.8 28.444444-28.444445 28.444444H547.555556c-15.644444 0-28.444444-12.8-28.444445-28.444444s12.8-28.444444 28.444445-28.444444h113.777777c15.644444 0 28.444444 12.8 28.444445 28.444444zM675.555556 632.888889c0 15.644444-12.8 28.444444-28.444445 28.444444H248.888889c-15.644444 0-28.444444-12.8-28.444445-28.444444s12.8-28.444444 28.444445-28.444445h398.222222c15.644444 0 28.444444 12.8 28.444445 28.444445zM675.555556 753.777778c0 15.644444-12.8 28.444444-28.444445 28.444444H248.888889c-15.644444 0-28.444444-12.8-28.444445-28.444444s12.8-28.444444 28.444445-28.444445h398.222222c15.644444 0 28.444444 12.8 28.444445 28.444445z" fill="#194F82" /><path d="M428.8 533.333333h-163.555556c-7.822222 0-14.222222-6.4-14.222222-14.222222v-59.022222c0-31.288889 25.6-56.888889 56.888889-56.888889h78.222222c31.288889 0 56.888889 25.6 56.888889 56.888889V519.111111c0 7.822222-6.4 14.222222-14.222222 14.222222z" fill="#5CBAEA" /><path d="M732.444444 732.444444m-184.888888 0a184.888889 184.888889 0 1 0 369.777777 0 184.888889 184.888889 0 1 0-369.777777 0Z" fill="#FFC10D" /><path d="M339.911111 270.222222m-49.777778 0a49.777778 49.777778 0 1 0 99.555556 0 49.777778 49.777778 0 1 0-99.555556 0Z" fill="#5CBAEA" /><path d="M789.333333 732.444444h-28.444444v-13.511111l51.911111-51.911111c11.377778-11.377778 11.377778-29.155556 0-40.533333-11.377778-11.377778-29.155556-11.377778-40.533333 0l-40.533334 40.533333-40.533333-40.533333c-11.377778-11.377778-29.155556-11.377778-40.533333 0-11.377778 11.377778-11.377778 29.155556 0 40.533333l51.911111 51.911111v13.511111h-28.444445c-15.644444 0-28.444444 12.8-28.444444 28.444445s12.8 28.444444 28.444444 28.444444h28.444445v41.955556c0 12.088889 12.8 22.044444 28.444444 22.044444s28.444444-9.955556 28.444445-22.044444V789.333333h28.444444c15.644444 0 28.444444-12.8 28.444445-28.444444s-11.377778-28.444444-27.022223-28.444445zM341.333333 355.555556c46.933333 0 85.333333-38.4 85.333334-85.333334s-38.4-85.333333-85.333334-85.333333-85.333333 38.4-85.333333 85.333333 38.4 85.333333 85.333333 85.333334z m0-113.777778c15.644444 0 28.444444 12.8 28.444445 28.444444s-12.8 28.444444-28.444445 28.444445-28.444444-12.8-28.444444-28.444445 12.8-28.444444 28.444444-28.444444zM376.888889 376.888889H305.777778c-46.933333 0-85.333333 38.4-85.333334 85.333333v56.888889c0 23.466667 19.2 42.666667 42.666667 42.666667h156.444445c23.466667 0 42.666667-19.2 42.666666-42.666667v-56.888889c0-46.933333-38.4-85.333333-85.333333-85.333333z m28.444444 128H277.333333v-42.666667c0-15.644444 12.8-28.444444 28.444445-28.444444h71.111111c15.644444 0 28.444444 12.8 28.444444 28.444444v42.666667z" fill="#194F82" /><path d="M814.222222 520.533333V149.333333c0-46.933333-38.4-85.333333-85.333333-85.333333H192c-46.933333 0-85.333333 38.4-85.333333 85.333333v725.333334c0 46.933333 38.4 85.333333 85.333333 85.333333H731.733333c125.155556 0 227.555556-102.4 227.555556-227.555556 0.711111-96.711111-59.733333-179.2-145.066667-211.911111zM192 903.111111c-15.644444 0-28.444444-12.8-28.444444-28.444444V149.333333c0-15.644444 12.8-28.444444 28.444444-28.444444h536.888889c15.644444 0 28.444444 12.8 28.444444 28.444444v356.977778c-8.533333-0.711111-16.355556-1.422222-24.888889-1.422222-125.155556 0-227.555556 102.4-227.555555 227.555555 0 67.555556 29.866667 128.711111 77.511111 170.666667H192z m540.444444 0c-93.866667 0-170.666667-76.8-170.666666-170.666667s76.8-170.666667 170.666666-170.666666 170.666667 76.8 170.666667 170.666666-76.8 170.666667-170.666667 170.666667z" fill="#194F82" /></svg>