<?xml version="1.0" standalone="no"?><!DOCTYPE svg PUBLIC "-//W3C//DTD SVG 1.1//EN" "http://www.w3.org/Graphics/SVG/1.1/DTD/svg11.dtd"><svg class="icon" width="200px" height="200.00px" viewBox="0 0 1024 1024" version="1.1" xmlns="http://www.w3.org/2000/svg"><path d="M762.311111 134.4l54.755556 14.933333c14.933333 4.266667 24.177778 19.911111 19.911111 34.844445l-69.688889 260.977778-110.222222-29.155556 69.688889-260.977778c4.977778-15.644444 20.622222-24.888889 35.555555-20.622222z" fill="#5CBAEA" /><path d="M496.355556 132.977778L152.888889 224.711111c-7.822222 2.133333-12.088889 9.955556-9.955556 17.066667L227.555556 558.222222l371.2-99.555555-85.333334-315.733334c-2.133333-7.822222-9.955556-12.088889-17.066666-9.955555z" fill="#FFC10D" /><path d="M728.931556 478.947556l-54.954667-14.72 36.807111-137.372445 54.954667 14.72z" fill="#FFFFFF" /><path d="M283.733333 329.244444l151.466667-40.533333c14.933333-4.266667 24.177778-19.911111 19.911111-34.844444-4.266667-14.933333-19.911111-24.177778-34.844444-19.911111l-151.466667 40.533333c-14.933333 4.266667-24.177778 19.911111-19.911111 34.844444 4.266667 14.933333 19.911111 24.177778 34.844444 19.911111zM308.622222 422.4l151.466667-40.533333c14.933333-4.266667 24.177778-19.911111 19.911111-34.844445-4.266667-14.933333-19.911111-24.177778-34.844444-19.911111l-151.466667 40.533333c-14.933333 4.266667-24.177778 19.911111-19.911111 34.844445 4.266667 14.933333 19.911111 24.177778 34.844444 19.911111z" fill="#194F82" /><path d="M488.533333 105.244444l-343.466666 92.444445c-22.755556 6.4-36.266667 29.866667-29.866667 51.911111l91.733333 343.466667 425.955556-113.777778-91.733333-343.466667c-6.4-22.755556-29.866667-36.266667-52.622223-30.577778z m74.666667 333.511112L247.466667 523.377778 174.222222 248.888889l315.733334-84.622222 73.244444 274.488889z" fill="#194F82" /><path d="M919.466667 206.222222l-54.755556-14.933333c7.822222-30.577778-9.955556-61.866667-40.533333-69.688889l-54.755556-14.933333c-30.577778-7.822222-61.866667 9.955556-69.688889 40.533333l-29.155555 110.222222-47.644445 178.488889L611.555556 476.444444l164.977777 44.088889 11.377778-41.244444 47.644445-178.488889 14.933333-54.755556 27.733333 7.111112-22.044444 82.488888c-4.266667 14.933333 4.977778 30.577778 19.911111 34.844445 14.933333 4.266667 30.577778-4.977778 34.844444-19.911111l29.155556-110.222222c3.555556-14.933333-4.977778-30.577778-20.622222-34.133334zM692.622222 395.377778l18.488889-68.977778 54.755556 14.933333-18.488889 68.977778-54.755556-14.933333z m32.711111-123.733334l29.155556-110.222222 54.755555 14.933334-29.155555 110.222222-54.755556-14.933334z" fill="#194F82" /><path d="M917.333333 504.888889H120.888889c-7.822222 0-14.222222-6.4-14.222222-14.222222v-28.444445c0-7.822222 6.4-14.222222 14.222222-14.222222h796.444444c7.822222 0 14.222222 6.4 14.222223 14.222222v28.444445c0 7.822222-6.4 14.222222-14.222223 14.222222zM853.333333 540.444444H170.666667c-7.822222 0-14.222222 6.4-14.222223 14.222223v256c0 31.288889 25.6 56.888889 56.888889 56.888889h597.333334c31.288889 0 56.888889-25.6 56.888889-56.888889V554.666667c0-7.822222-6.4-14.222222-14.222223-14.222223z" fill="#FFFFFF" /><path d="M867.555556 768H654.222222c-7.822222 0-14.222222-6.4-14.222222-14.222222V668.444444c0-7.822222 6.4-14.222222 14.222222-14.222222h213.333334v113.777778z" fill="#5CBAEA" /><path d="M917.333333 391.111111H106.666667c-23.466667 0-42.666667 19.2-42.666667 42.666667v85.333333c0 23.466667 19.2 42.666667 42.666667 42.666667h21.333333v270.222222c0 46.933333 38.4 85.333333 85.333333 85.333333h597.333334c46.933333 0 85.333333-38.4 85.333333-85.333333V561.777778h21.333333c23.466667 0 42.666667-19.2 42.666667-42.666667V433.777778c0-23.466667-19.2-42.666667-42.666667-42.666667z m-78.222222 348.444445H668.444444v-56.888889h170.666667v56.888889z m0-113.777778H654.222222c-23.466667 0-42.666667 19.2-42.666666 42.666666v85.333334c0 23.466667 19.2 42.666667 42.666666 42.666666h184.888889v35.555556c0 15.644444-12.8 28.444444-28.444444 28.444444H213.333333c-15.644444 0-28.444444-12.8-28.444444-28.444444V561.777778h654.222222v64z m64-120.888889H120.888889v-56.888889h782.222222v56.888889z" fill="#194F82" /></svg>