<?xml version="1.0" standalone="no"?><!DOCTYPE svg PUBLIC "-//W3C//DTD SVG 1.1//EN" "http://www.w3.org/Graphics/SVG/1.1/DTD/svg11.dtd"><svg class="icon" width="200px" height="200.00px" viewBox="0 0 1024 1024" version="1.1" xmlns="http://www.w3.org/2000/svg"><path d="M832 931.555556h-640c-31.288889 0-56.888889-25.6-56.888889-56.888889v-725.333334c0-31.288889 25.6-56.888889 56.888889-56.888889h640c31.288889 0 56.888889 25.6 56.888889 56.888889v725.333334c0 31.288889-25.6 56.888889-56.888889 56.888889z" fill="#FFFFFF" /><path d="M888.888889 149.333333v113.777778h-753.777778v-113.777778c0-31.288889 25.6-56.888889 56.888889-56.888889h640c31.288889 0 56.888889 25.6 56.888889 56.888889z" fill="#FFC44F" /><path d="M483.555556 412.444444v113.777778c0 15.644444-12.8 28.444444-28.444445 28.444445h-170.666667c-15.644444 0-28.444444-12.8-28.444444-28.444445v-113.777778c0-15.644444 12.8-28.444444 28.444444-28.444444h170.666667c15.644444 0 28.444444 12.8 28.444445 28.444444z" fill="#5CBAEA" /><path d="M597.333333 426.666667h170.666667c15.644444 0 28.444444-12.8 28.444444-28.444445s-12.8-28.444444-28.444444-28.444444h-170.666667c-15.644444 0-28.444444 12.8-28.444444 28.444444s12.8 28.444444 28.444444 28.444445zM597.333333 568.888889h170.666667c15.644444 0 28.444444-12.8 28.444444-28.444445s-12.8-28.444444-28.444444-28.444444h-170.666667c-15.644444 0-28.444444 12.8-28.444444 28.444444s12.8 28.444444 28.444444 28.444445zM768 661.333333h-504.888889c-15.644444 0-28.444444 12.8-28.444444 28.444445s12.8 28.444444 28.444444 28.444444h504.888889c15.644444 0 28.444444-12.8 28.444444-28.444444s-12.8-28.444444-28.444444-28.444445zM764.444444 775.111111h-504.888888c-15.644444 0-28.444444 12.8-28.444445 28.444445s12.8 28.444444 28.444445 28.444444h504.888888c15.644444 0 28.444444-12.8 28.444445-28.444444s-12.8-28.444444-28.444445-28.444445zM284.444444 583.111111h170.666667c31.288889 0 56.888889-25.6 56.888889-56.888889v-113.777778c0-31.288889-25.6-56.888889-56.888889-56.888888h-170.666667c-31.288889 0-56.888889 25.6-56.888888 56.888888v113.777778c0 31.288889 25.6 56.888889 56.888888 56.888889z m170.666667-170.666667h28.444445-28.444445z m-170.666667 0h170.666667v113.777778h-170.666667v-113.777778z" fill="#194F82" /><path d="M832 64h-640c-46.933333 0-85.333333 38.4-85.333333 85.333333v725.333334c0 46.933333 38.4 85.333333 85.333333 85.333333h640c46.933333 0 85.333333-38.4 85.333333-85.333333v-725.333334c0-46.933333-38.4-85.333333-85.333333-85.333333z m28.444444 810.666667c0 15.644444-12.8 28.444444-28.444444 28.444444h-640c-15.644444 0-28.444444-12.8-28.444444-28.444444v-583.111111h696.888888v583.111111z m0-640h-696.888888v-85.333334c0-15.644444 12.8-28.444444 28.444444-28.444444h640c15.644444 0 28.444444 12.8 28.444444 28.444444v85.333334z" fill="#194F82" /></svg>