<?xml version="1.0" standalone="no"?><!DOCTYPE svg PUBLIC "-//W3C//DTD SVG 1.1//EN" "http://www.w3.org/Graphics/SVG/1.1/DTD/svg11.dtd"><svg class="icon" width="200px" height="200.00px" viewBox="0 0 1024 1024" version="1.1" xmlns="http://www.w3.org/2000/svg"><path d="M732.444444 931.555556h-440.888888l-64-533.333334 56.888888-163.555555h455.111112l56.888888 163.555555z" fill="#FFC10D" /><path d="M278.044444 817.777778h467.911112l26.311111-227.555556h-520.533334z" fill="#5CBAEA" /><path d="M860.444444 305.777778h-57.6l-36.266666-93.155556c-3.555556-12.088889-14.933333-20.622222-27.022222-20.622222h-455.111112c-12.8 0-23.466667 8.533333-27.022222 20.622222l-36.266666 93.155556h-57.6c-31.288889 0-56.888889 25.6-56.888889 56.888889v42.666666c0 31.288889 25.6 56.888889 56.888889 56.888889h44.8l15.644444 131.555556 26.311111 227.555555 13.511111 113.777778c1.422222 14.222222 13.511111 24.888889 28.444445 24.888889h440.888889c14.222222 0 26.311111-10.666667 28.444444-24.888889l26.311111-223.288889 13.511111-118.044444 15.644445-131.555556h44.8c31.288889 0 56.888889-25.6 56.888889-56.888889v-42.666666c-1.422222-31.288889-27.022222-56.888889-58.311112-56.888889z m-554.666666-56.888889h412.444444l25.6 56.888889h-463.644444l25.6-56.888889z m401.066666 654.222222h-389.688888l-6.4-56.888889h403.911111l-7.822223 56.888889z m13.511112-113.777778h-416.711112l-19.911111-170.666666h456.533334l-19.911111 170.666666z m27.022222-227.555555h-470.755556l-11.377778-99.555556h493.511112l-11.377778 99.555556z m113.066666-156.444445h-696.888888v-42.666666h696.177777l0.711111 42.666666z" fill="#194F82" /><path d="M163.555556 362.666667h696.888888v42.666666h-696.888888z" fill="#FFFFFF" /><path d="M387.555556 156.444444c-2.133333 0-3.555556 0-5.688889-0.711111-11.377778-2.844444-17.777778-13.511111-14.933334-23.466666 2.133333-7.822222 5.688889-17.066667-2.133333-30.577778-17.777778-29.866667-5.688889-47.644444-3.555556-51.2 6.4-8.533333 19.911111-10.666667 29.866667-4.977778 9.244444 5.688889 11.377778 15.644444 7.111111 24.177778 0 1.422222 0 5.688889 4.977778 14.222222 14.933333 27.022222 8.533333 48.355556 4.977778 58.311111-2.844444 8.533333-11.377778 14.222222-20.622222 14.222222zM508.444444 156.444444c-2.133333 0-3.555556 0-5.688888-0.711111-11.377778-2.844444-17.777778-13.511111-14.933334-23.466666 2.133333-7.822222 5.688889-17.066667-2.133333-30.577778-17.777778-29.866667-5.688889-47.644444-3.555556-51.2 6.4-8.533333 19.911111-10.666667 29.866667-4.977778 9.244444 5.688889 11.377778 15.644444 7.111111 24.177778 0 1.422222 0 5.688889 4.977778 14.222222 14.933333 27.022222 8.533333 48.355556 4.977778 58.311111-2.844444 8.533333-11.377778 14.222222-20.622223 14.222222zM643.555556 156.444444c-2.133333 0-3.555556 0-5.688889-0.711111-11.377778-2.844444-17.777778-13.511111-14.933334-23.466666 2.133333-7.822222 5.688889-17.066667-2.133333-30.577778-17.777778-29.866667-5.688889-47.644444-3.555556-51.2 6.4-8.533333 19.911111-10.666667 29.866667-4.977778 9.244444 5.688889 11.377778 15.644444 7.111111 24.177778 0 1.422222 0 5.688889 4.977778 14.222222 14.933333 27.022222 8.533333 48.355556 4.977778 58.311111-2.844444 8.533333-11.377778 14.222222-20.622222 14.222222z" fill="#194F82" /></svg>