<?xml version="1.0" standalone="no"?><!DOCTYPE svg PUBLIC "-//W3C//DTD SVG 1.1//EN" "http://www.w3.org/Graphics/SVG/1.1/DTD/svg11.dtd"><svg class="icon" width="200px" height="200.00px" viewBox="0 0 1024 1024" version="1.1" xmlns="http://www.w3.org/2000/svg"><path fill="#333333" d="M727.14804102 138.90008779c-8.90512823 0-16.13355205 7.2148166-16.13355206 16.1275043v713.93876807c0 8.91873545 7.22842383 16.13355205 16.13355206 16.13355205s16.10482588-7.21330489 16.104825-16.13355205V155.02759209c0-8.9126877-7.20120937-16.1275043-16.104825-16.1275043z m70.93259385 0c-8.91873545 0-16.13355205 7.2148166-16.13355118 16.1275043v713.93876807a16.12145654 16.12145654 0 0 0 16.13355118 16.13355205c8.89152099 0 16.10482588-7.21330489 16.10482587-16.13355205V155.02759209c0-8.9126877-7.21330489-16.1275043-16.10482587-16.1275043z m70.9174749 0c-8.91873545 0-16.13355205 7.2148166-16.13355118 16.1275043v713.93876807a16.12145654 16.12145654 0 0 0 16.13355118 16.13355205c8.89152099 0 16.10482588-7.21330489 16.10482588-16.13355205V155.02759209c0-8.9126877-7.21330489-16.1275043-16.10482588-16.1275043z m-543.2672294 0H188.6523875c-27.47133721 0-49.74927539 22.268867-49.74927539 49.7417168v646.69976015c0 27.47284893 22.27642646 49.75683487 49.74927539 49.75683487h137.07849287c27.45772998 0 49.74171592-22.28398682 49.74171592-49.75683487V188.64331631c0-27.47284893-22.28398682-49.74322763-49.74171592-49.74322852z m-16.65818261 239.07622588H205.31813047a16.12145654 16.12145654 0 0 1-16.13355205-16.13355205c0-8.89000839 7.21330489-16.10482588 16.13355205-16.104825h103.75456729c8.90512823 0 16.11994482 7.21330489 16.11994394 16.104825-0.00151172 8.91873545-7.21632832 16.13355205-16.11994394 16.13355205z m0-80.78417578H205.31813047c-8.91873545 0-16.13355205-7.2148166-16.13355205-16.11994395 0-8.89000839 7.21330489-16.11994482 16.13355205-16.11994482h103.75456729c8.90512823 0 16.11994482 7.22842383 16.11994394 16.11994482-0.00151172 8.90512823-7.21632832 16.11994482-16.11994394 16.11994395zM614.6788458 138.90008779H477.62303135c-27.48796787 0-49.75683487 22.268867-49.75683487 49.7417168v646.69976015c0 27.47284893 22.268867 49.75683487 49.75683487 49.75683487h137.05581445c27.48796787 0 49.75532315-22.28398682 49.75532314-49.75683487V188.64331631c0-27.47284893-22.26735527-49.74322763-49.75532314-49.74322852z m-16.64457627 239.07622588h-103.75305469c-8.90512823 0-16.13355205-7.21330489-16.13355205-16.13355205 0-8.89000839 7.22993555-16.10482588 16.13355205-16.104825h103.75305469c8.91873545 0 16.11994482 7.21330489 16.11994482 16.104825 0 8.91873545-7.19969766 16.13355205-16.11994482 16.13355205z m0-80.78417578h-103.75305469c-8.90512823 0-16.13355205-7.2148166-16.13355205-16.11994395 0-8.89000839 7.22993555-16.11994482 16.13355205-16.11994482h103.75305469c8.91873545 0 16.11994482 7.22842383 16.11994482 16.11994482 0 8.90512823-7.19969766 16.11994482-16.11994482 16.11994395z" /></svg>