<?xml version="1.0" standalone="no"?><!DOCTYPE svg PUBLIC "-//W3C//DTD SVG 1.1//EN" "http://www.w3.org/Graphics/SVG/1.1/DTD/svg11.dtd"><svg class="icon" width="200px" height="200.00px" viewBox="0 0 1024 1024" version="1.1" xmlns="http://www.w3.org/2000/svg"><path d="M163.555556 120.888889h696.888888v782.222222H163.555556z" fill="#FFFFFF" /><path d="M832 960H192c-46.933333 0-85.333333-38.4-85.333333-85.333333V149.333333c0-46.933333 38.4-85.333333 85.333333-85.333333h640c46.933333 0 85.333333 38.4 85.333333 85.333333v725.333334c0 46.933333-38.4 85.333333-85.333333 85.333333zM192 120.888889c-15.644444 0-28.444444 12.8-28.444444 28.444444v725.333334c0 15.644444 12.8 28.444444 28.444444 28.444444h640c15.644444 0 28.444444-12.8 28.444444-28.444444V149.333333c0-15.644444-12.8-28.444444-28.444444-28.444444H192z" fill="#194F82" /><path d="M817.777778 874.666667H206.222222c-7.822222 0-14.222222-6.4-14.222222-14.222223V163.555556c0-7.822222 6.4-14.222222 14.222222-14.222223h611.555556c7.822222 0 14.222222 6.4 14.222222 14.222223v696.888888c0 7.822222-6.4 14.222222-14.222222 14.222223z" fill="#FFC10D" /><path d="M448 384h-56.888889v-24.888889l70.4-73.955555c10.666667-11.377778 10.666667-29.866667 0-41.955556s-28.444444-11.377778-39.111111 0L362.666667 305.777778l-59.022223-62.577778c-10.666667-11.377778-28.444444-11.377778-39.111111 0s-10.666667 29.866667 0 41.955556L334.222222 359.111111V384h-56.888889c-15.644444 0-28.444444 12.8-28.444444 28.444444s12.8 28.444444 28.444444 28.444445h56.888889v71.111111c0 15.644444 12.8 28.444444 28.444445 28.444444s28.444444-12.8 28.444444-28.444444V440.888889h56.888889c15.644444 0 28.444444-12.8 28.444444-28.444445s-12.8-28.444444-28.444444-28.444444zM775.111111 391.111111c0 15.644444-12.8 28.444444-28.444444 28.444445H576c-15.644444 0-28.444444-12.8-28.444444-28.444445s12.8-28.444444 28.444444-28.444444h170.666667c15.644444 0 28.444444 12.8 28.444444 28.444444zM775.111111 263.111111c0 15.644444-12.8 28.444444-28.444444 28.444445H576c-15.644444 0-28.444444-12.8-28.444444-28.444445s12.8-28.444444 28.444444-28.444444h170.666667c15.644444 0 28.444444 12.8 28.444444 28.444444zM775.111111 512c0 15.644444-12.8 28.444444-28.444444 28.444444H576c-15.644444 0-28.444444-12.8-28.444444-28.444444s12.8-28.444444 28.444444-28.444444h170.666667c15.644444 0 28.444444 12.8 28.444444 28.444444zM775.111111 632.888889c0 15.644444-12.8 28.444444-28.444444 28.444444H277.333333c-15.644444 0-28.444444-12.8-28.444444-28.444444s12.8-28.444444 28.444444-28.444445h469.333334c15.644444 0 28.444444 12.8 28.444444 28.444445zM775.111111 753.777778c0 15.644444-12.8 28.444444-28.444444 28.444444H277.333333c-15.644444 0-28.444444-12.8-28.444444-28.444444s12.8-28.444444 28.444444-28.444445h469.333334c15.644444 0 28.444444 12.8 28.444444 28.444445z" fill="#194F82" /></svg>