<?xml version="1.0" standalone="no"?><!DOCTYPE svg PUBLIC "-//W3C//DTD SVG 1.1//EN" "http://www.w3.org/Graphics/SVG/1.1/DTD/svg11.dtd"><svg class="icon" width="200px" height="200.00px" viewBox="0 0 1024 1024" version="1.1" xmlns="http://www.w3.org/2000/svg"><path d="M120.888889 163.555556h782.222222v412.444444h-782.222222z" fill="#5CBAEA" /><path d="M874.666667 746.666667h-725.333334c-31.288889 0-56.888889-25.6-56.888889-56.888889v-85.333334h839.111112v85.333334c0 31.288889-25.6 56.888889-56.888889 56.888889zM611.555556 750.222222l71.111111 163.555556h-341.333334l71.111111-163.555556z" fill="#FFFFFF" /><path d="M504.888889 675.555556m-28.444445 0a28.444444 28.444444 0 1 0 56.888889 0 28.444444 28.444444 0 1 0-56.888889 0Z" fill="#194F82" /><path d="M903.111111 106.666667h-782.222222c-31.288889 0-56.888889 25.6-56.888889 56.888889v554.666666c0 31.288889 25.6 56.888889 56.888889 56.888889h245.333333l-42.666666 85.333333h-60.444445c-15.644444 0-28.444444 12.8-28.444444 28.444445s12.8 28.444444 28.444444 28.444444h497.066667c15.644444 0 28.444444-12.8 28.444444-28.444444s-12.8-28.444444-28.444444-28.444445h-60.444445l-42.666666-85.333333h245.333333c31.288889 0 56.888889-25.6 56.888889-56.888889v-554.666666c0.711111-31.288889-24.888889-56.888889-56.177778-56.888889z m-266.666667 753.777777h-249.6l42.666667-85.333333h164.266667l42.666666 85.333333z m-7.111111-142.222222h-507.733333v-85.333333h782.222222v85.333333h-274.488889z m273.777778 28.444445v-28.444445 28.444445z m-782.222222-170.666667v-412.444444h782.222222v412.444444h-782.222222z" fill="#194F82" /><path d="M917.333333 732.444444h-305.777777c-11.377778 0-21.333333-9.955556-21.333334-21.333333v-163.555555c0-11.377778 9.955556-21.333333 21.333334-21.333334h305.777777c11.377778 0 21.333333 9.955556 21.333334 21.333334v163.555555c0 12.088889-9.244444 21.333333-21.333334 21.333333z" fill="#FFC10D" /><path d="M917.333333 490.666667h-49.777777v-28.444445c0-31.288889-25.6-56.888889-56.888889-56.888889h-85.333334c-31.288889 0-56.888889 25.6-56.888889 56.888889v28.444445h-64c-23.466667 0-42.666667 19.2-42.666666 42.666666v199.111111c0 23.466667 19.2 42.666667 42.666666 42.666667h312.888889c23.466667 0 42.666667-19.2 42.666667-42.666667v-199.111111c0-23.466667-19.2-42.666667-42.666667-42.666666z m-192-28.444445h85.333334v28.444445h-85.333334v-28.444445z m177.777778 256h-284.444444v-170.666666h284.444444v170.666666z" fill="#194F82" /></svg>